# xmcd
#
# Track frame offsets:
#	150
#	10374
#	22170
#	32839
#	45173
#	66030
#	77664
#	88803
#	102677
#	114616
#	131032
#	142781
#	157020
#	168602
#	180931
#	193367
#	209356
#	220890
#	231462
#	246598
#
# Disc length: 3484 seconds
#
# Revision: 1
# Processed by: cddbd v1.5.2PL0 Copyright (c) Steve Scherf et al.
# Submitted via: audiograbber 1.83.01
#
DISCID=280d9a14
DTITLE=A Little Bit of Heaven - A Little Bit of Heaven Vol. 5
DYEAR=1900
DGENRE=Gospel
TTITLE0=I'm Longing For Jesus
TTITLE1=I Shall Not Be Moved
TTITLE2=This Train
TTITLE3=Joshua Fought The Battle Of Jericho
TTITLE4=He's Alive
TTITLE5=Do, Lord
TTITLE6=(Some) Glad Day After While
TTITLE7='Til The Storm Passes By
TTITLE8=Greater Is He That Is In Me
TTITLE9=Peace In The Vally
TTITLE10=Soon And Very Soon
TTITLE11=I Go To The Rock
TTITLE12=Standin' In The Need Of Prayer
TTITLE13=O Come, Angel Band
TTITLE14=Blessed Be The Name
TTITLE15=(I'll) Rise Again
TTITLE16=God's Building A Church
TTITLE17=In My Heart There Rings A Melody
TTITLE18=My Tribute (To God Be The Glory)
TTITLE19=(On The) Wings Of A Dove
EXTD=
EXTT0=
EXTT1=
EXTT2=
EXTT3=
EXTT4=
EXTT5=
EXTT6=
EXTT7=
EXTT8=
EXTT9=
EXTT10=
EXTT11=
EXTT12=
EXTT13=
EXTT14=
EXTT15=
EXTT16=
EXTT17=
EXTT18=
EXTT19=
PLAYORDER=
